HIERARCHY
ROOT Hips
{
  OFFSET 53.7534 96.9389 0.553568
  CHANNELS 6 Xposition Yposition Zposition Zrotation Xrotation Yrotation
  JOINT spine
  {
    OFFSET 0 7.96568 0.458067
    CHANNELS 3 Zrotation Xrotation Yrotation
    JOINT spine1
    {
      OFFSET 0 10.2431 0
      CHANNELS 3 Zrotation Xrotation Yrotation
      JOINT spine2
      {
        OFFSET 0 9.81475 0
        CHANNELS 3 Zrotation Xrotation Yrotation
        JOINT Neck
        {
          OFFSET 0 25.1986 1.20138
          CHANNELS 3 Zrotation Xrotation Yrotation
          JOINT Head
          {
            OFFSET 0 7.61315 0
            CHANNELS 3 Zrotation Xrotation Yrotation
            End Site
            {
              OFFSET 0 18.4281 -6.07733
            }
          }
        }
        JOINT RightShoulder
        {
          OFFSET -4.1327 10.5992 -0.575451
          CHANNELS 3 Zrotation Xrotation Yrotation
          JOINT RightArm
          {
            OFFSET 0 13.9018 0
            CHANNELS 3 Zrotation Xrotation Yrotation
            JOINT RightArmRoll
            {
              OFFSET 0 7.01789 0
              CHANNELS 3 Zrotation Xrotation Yrotation
              JOINT RightForeArm
              {
                OFFSET 0 20.4406 0
                CHANNELS 3 Zrotation Xrotation Yrotation
                JOINT RightForeArmRoll
                {
                  OFFSET 0 7.87515 0
                  CHANNELS 3 Zrotation Xrotation Yrotation
                  JOINT RightHand
                  {
                    OFFSET 0 15.8037 0
                    CHANNELS 3 Zrotation Xrotation Yrotation
                    End Site
                    {
                      OFFSET 0 0 0
                    }
                  }
                }
              }
            }
          }
        }
        JOINT LeftShoulder
        {
          OFFSET 4.1327 10.5992 -0.575451
          CHANNELS 3 Zrotation Xrotation Yrotation
          JOINT LeftArm
          {
            OFFSET 0 13.9018 0
            CHANNELS 3 Zrotation Xrotation Yrotation
            JOINT LeftArmRoll
            {
              OFFSET 0 7.01789 0
              CHANNELS 3 Zrotation Xrotation Yrotation
              JOINT LeftForeArm
              {
                OFFSET 0 20.4406 0
                CHANNELS 3 Zrotation Xrotation Yrotation
                JOINT LeftForeArmRoll
                {
                  OFFSET 0 7.87515 0
                  CHANNELS 3 Zrotation Xrotation Yrotation
                  JOINT LeftHand
                  {
                    OFFSET 0 15.8037 0
                    CHANNELS 3 Zrotation Xrotation Yrotation
                    End Site
                    {
                      OFFSET 0 0 0
                    }
                  }
                }
              }
            }
          }
        }
      }
    }
  }
  JOINT RightUpLeg
  {
    OFFSET -7.06048 -1.2947 -1.08609
    CHANNELS 3 Zrotation Xrotation Yrotation
    JOINT RightUpLegRoll
    {
      OFFSET 0 18.5308 0
      CHANNELS 3 Zrotation Xrotation Yrotation
      JOINT RightLeg
      {
        OFFSET 0 -22.9476 0
        CHANNELS 3 Zrotation Xrotation Yrotation
        JOINT RightLegRoll
        {
          OFFSET 0 23.0226 0
          CHANNELS 3 Zrotation Xrotation Yrotation
          JOINT RightFoot
          {
            OFFSET 0 19.1625 0
            CHANNELS 3 Zrotation Xrotation Yrotation
            JOINT RightToeBase
            {
              OFFSET 0 16.0188 0
              CHANNELS 3 Zrotation Xrotation Yrotation
              End Site
              {
                OFFSET 0.00678979 7.75782 -0.894206
              }
            }
          }
        }
      }
    }
  }
  JOINT LeftUpLeg
  {
    OFFSET 7.06048 -1.2947 -1.08609
    CHANNELS 3 Zrotation Xrotation Yrotation
    JOINT LeftUpLegRoll
    {
      OFFSET 0 18.5309 0
      CHANNELS 3 Zrotation Xrotation Yrotation
      JOINT LeftLeg
      {
        OFFSET 0 22.9475 0
        CHANNELS 3 Zrotation Xrotation Yrotation
        JOINT LeftLegRoll
        {
          OFFSET 0 23.2355 0
          CHANNELS 3 Zrotation Xrotation Yrotation
          JOINT LeftFoot
          {
            OFFSET 0 18.9496 0
            CHANNELS 3 Zrotation Xrotation Yrotation
            JOINT LeftToeBase
            {
              OFFSET 0 16.0188 0
              CHANNELS 3 Zrotation Xrotation Yrotation
              End Site
              {
                OFFSET -0.0304289 7.75782 -0.894206
              }
            }
          }
        }
      }
    }
  }
}
MOTION
Frames: 10
Frame Time: 0.00208333
53.861 97.0863 0.932236 0.22378 -5.77568 7.66801 0.0115401 -0.301673 -0.291921 0.00117631 3.39947 -0.583976 0.00820187 5.04452 -0.584565 -6.32177 13.3621 0.168448 12.2534 15.299 -1.97755 68.851 -3.50314 -2.96053 107.165 21.0961 5.44324 4.47056e-005 -1.16305e-008 6.83955e-007 6.94487 11.5551 -1.66538 -3.75396e-006 5.32805e-006 -3 8.02928 -4.95143 0.697658 -63.7658 -3.99036 2.843 -109.327 20.1568 3.76183 7.55382e-015 3.18055e-015 2.38542e-015 -11.9962 9.1694 1.60436 2.52956e-005 -3.80078e-006 3 -8.0289 -4.95139 -0.697676 177.819 -2.44888 3.52466 180 7.0153e-015 178.85 177.059 7.02705 179.775 -3.63843e-006 -2.58404e-006 0.102965 -19.3859 68.8031 20.2433 8.13649 25.2327 -3.48774 -176.683 -5.35185 -1.35705 4.54188e-006 -4.6773e-006 -1.22201 -2.75965 -5.43879 -0.00414817 3.08558e-007 2.84348e-007 -0.0583622 18.364 67.5236 -19.146 -8.13649 25.2327 3.48774 
53.8621 97.0854 0.932764 0.223292 -5.79379 7.65348 0.0113192 -0.296688 -0.290404 0.00225814 3.40944 -0.581062 0.00926813 5.05449 -0.581661 -6.32332 13.3639 0.165894 12.2589 15.3019 -1.98129 68.8563 -3.50188 -2.96031 107.159 21.0864 5.50656 4.47056e-005 -1.16305e-008 6.83955e-007 6.89783 11.5559 -1.66166 -3.75396e-006 5.32805e-006 -3 8.02928 -4.95143 0.697658 -63.7608 -4.00013 2.84814 -109.323 20.1335 3.75085 2.78299e-015 -6.36111e-015 1.59028e-015 -11.9964 9.16691 1.60401 2.52956e-005 -3.80078e-006 3 -8.0289 -4.95139 -0.697676 177.818 -2.46084 3.53097 180 7.0153e-015 178.85 177.054 7.03513 179.776 -3.63843e-006 -2.58404e-006 0.102965 -19.385 68.8021 20.2423 8.13649 25.2327 -3.48774 -176.679 -5.37765 -1.36474 4.54188e-006 -4.6773e-006 -1.22201 -2.76422 -5.43549 -0.00447568 3.08558e-007 2.84348e-007 -0.0583513 18.3642 67.5238 -19.1462 -8.13649 25.2327 3.48774 
53.8381 97.0875 1.00453 0.222858 -5.81237 7.63859 0.0110677 -0.29156 -0.288801 0.00330598 3.41969 -0.57798 0.0103109 5.06474 -0.578587 -6.32533 13.3652 0.163367 12.2648 15.3048 -1.9851 68.8608 -3.50067 -2.96005 107.155 21.0776 5.5694 4.47056e-005 -1.16305e-008 6.83955e-007 6.85046 11.554 -1.65775 -3.75396e-006 5.32805e-006 -3 8.02928 -4.95143 0.697658 -63.7559 -4.01026 2.85348 -109.318 20.1115 3.74127 -3.97569e-015 -9.54166e-015 -7.95139e-016 -11.9976 9.16203 1.6034 2.52956e-005 -3.80078e-006 3 -8.0289 -4.95139 -0.697676 177.817 -2.47311 3.53765 180 7.0153e-015 178.85 177.047 7.04372 179.777 -3.63843e-006 -2.58404e-006 0.102965 -19.3842 68.8012 20.2415 8.13649 25.2327 -3.48774 -176.675 -5.4044 -1.3725 4.54188e-006 -4.6773e-006 -1.22201 -2.76881 -5.43156 -0.00480175 3.08558e-007 2.84348e-007 -0.0583334 18.3641 67.5237 -19.1461 -8.13649 25.2327 3.48774 
53.8468 97.0872 0.990733 0.222458 -5.83129 7.62343 0.0107948 -0.286332 -0.287138 0.00432958 3.43015 -0.574779 0.0113369 5.07519 -0.575396 -6.32765 13.3661 0.160859 12.2709 15.3077 -1.98897 68.8646 -3.49949 -2.95976 107.152 21.0695 5.63189 4.47056e-005 -1.16305e-008 6.83955e-007 6.80286 11.5502 -1.65371 -3.75396e-006 5.32805e-006 -3 8.02928 -4.95143 0.697658 -63.751 -4.02063 2.85896 -109.314 20.0904 3.73266 -2.54444e-014 -3.18055e-015 -8.74653e-015 -11.9995 9.15549 1.60259 2.52956e-005 -3.80078e-006 3 -8.0289 -4.95139 -0.697676 177.816 -2.48559 3.54459 180 7.0153e-015 178.85 177.041 7.05271 179.778 -3.63843e-006 -2.58404e-006 0.102965 -19.3835 68.8004 20.2408 8.13649 25.2327 -3.48774 -176.671 -5.43181 -1.38031 4.54188e-006 -4.6773e-006 -1.22201 -2.77343 -5.42717 -0.00512682 3.08558e-007 2.84348e-007 -0.0583107 18.364 67.5236 -19.146 -8.13649 25.2327 3.48774 
53.8437 97.0874 1.00993 0.222074 -5.85041 7.60812 0.0105094 -0.281047 -0.28544 0.0053388 3.44071 -0.571512 0.0123526 5.08576 -0.572136 -6.33016 13.3669 0.158362 12.2772 15.3105 -1.99287 68.8681 -3.49833 -2.95945 107.15 21.0617 5.69419 4.47056e-005 -1.16305e-008 6.83955e-007 6.75512 11.5453 -1.64959 -3.75396e-006 5.32805e-006 -3 8.02928 -4.95143 0.697658 -63.7461 -4.03114 2.86452 -109.31 20.0699 3.7246 7.55382e-015 -6.36111e-015 7.95139e-016 -12.0017 9.14798 1.60168 2.52956e-005 -3.80078e-006 3 -8.0289 -4.95139 -0.697676 177.815 -2.4982 3.55168 180 7.0153e-015 178.85 177.035 7.06191 179.779 -3.63843e-006 -2.58404e-006 0.102965 -19.3828 68.7997 20.2401 8.13649 25.2327 -3.48774 -176.667 -5.4596 -1.38815 4.54188e-006 -4.6773e-006 -1.22201 -2.77806 -5.42253 -0.00545132 3.08558e-007 2.84348e-007 -0.0582852 18.3638 67.5233 -19.1457 -8.13649 25.2327 3.48774 
53.8277 97.0855 1.01877 0.221685 -5.86957 7.59277 0.0102207 -0.275747 -0.283734 0.00634349 3.45131 -0.568227 0.0133649 5.09635 -0.56886 -6.33271 13.3676 0.155867 12.2835 15.3133 -1.99678 68.8715 -3.49717 -2.95914 107.147 21.0541 5.75643 4.47056e-005 -1.16305e-008 6.83955e-007 6.70735 11.5402 -1.64546 -3.75396e-006 5.32805e-006 -3 8.02928 -4.95143 0.697658 -63.7413 -4.04169 2.8701 -109.306 20.0494 3.71669 1.59028e-015 -3.18055e-015 -1.59028e-015 -12.004 9.14024 1.60075 2.52956e-005 -3.80078e-006 3 -8.0289 -4.95139 -0.697676 177.813 -2.51084 3.5588 180 7.0153e-015 178.85 177.028 7.07118 179.78 -3.63843e-006 -2.58404e-006 0.102965 -19.3822 68.799 20.2395 8.13649 25.2327 -3.48774 -176.663 -5.48748 -1.39599 4.54188e-006 -4.6773e-006 -1.22201 -2.7827 -5.41783 -0.00577567 3.08558e-007 2.84348e-007 -0.0582591 18.3635 67.523 -19.1455 -8.13649 25.2327 3.48774 
53.8373 97.0843 1.0057 0.221273 -5.88863 7.5775 0.00993777 -0.270476 -0.282045 0.0073536 3.46185 -0.564976 0.0143805 5.10689 -0.565617 -6.33517 13.3683 0.153366 12.2897 15.3162 -2.00068 68.8751 -3.496 -2.95883 107.145 21.0462 5.81876 4.47056e-005 -1.16305e-008 6.83955e-007 6.65964 11.5356 -1.64136 -3.75396e-006 5.32805e-006 -3 8.02928 -4.95143 0.697658 -63.7364 -4.05217 2.87565 -109.302 20.0287 3.7085 1.23246e-014 0 3.97569e-015 -12.0061 9.13298 1.59987 2.52956e-005 -3.80078e-006 3 -8.0289 -4.95139 -0.697676 177.812 -2.52342 3.56586 180 7.0153e-015 178.85 177.022 7.08033 179.782 -3.63843e-006 -2.58404e-006 0.102965 -19.3815 68.7983 20.2388 8.13649 25.2327 -3.48774 -176.659 -5.51518 -1.40382 4.54188e-006 -4.6773e-006 -1.22201 -2.78732 -5.41325 -0.0061003 3.08558e-007 2.84348e-007 -0.0582343 18.3634 67.5228 -19.1453 -8.13649 25.2327 3.48774 
53.8412 97.083 1.02318 0.22082 -5.90746 7.56241 0.00966967 -0.265276 -0.280399 0.00837911 3.47225 -0.561809 0.0154062 5.11729 -0.562459 -6.3374 13.3694 0.150853 12.2957 15.319 -2.00453 68.8791 -3.49481 -2.95855 107.141 21.0378 5.88132 4.47056e-005 -1.16305e-008 6.83955e-007 6.61211 11.5323 -1.63736 -3.75396e-006 5.32805e-006 -3 8.02928 -4.95143 0.697658 -63.7315 -4.06247 2.88109 -109.298 20.0074 3.69962 -2.82274e-014 -6.36111e-015 -8.74653e-015 -12.0077 9.12691 1.59912 2.52956e-005 -3.80078e-006 3 -8.0289 -4.95139 -0.697676 177.811 -2.53584 3.57272 180 7.0153e-015 178.85 177.015 7.08921 179.783 -3.63843e-006 -2.58404e-006 0.102965 -19.3808 68.7975 20.238 8.13649 25.2327 -3.48774 -176.655 -5.5424 -1.41162 4.54188e-006 -4.6773e-006 -1.22201 -2.79194 -5.40899 -0.00642564 3.08558e-007 2.84348e-007 -0.058213 18.3632 67.5226 -19.1452 -8.13649 25.2327 3.48774 
53.8442 97.0824 1.00846 0.220309 -5.92591 7.54763 0.00942554 -0.260191 -0.278822 0.00943009 3.48241 -0.558777 0.016449 5.12745 -0.559436 -6.33927 13.3708 0.148318 12.3015 15.322 -2.00832 68.8838 -3.49359 -2.9583 107.137 21.0286 5.94426 4.47056e-005 -1.16305e-008 6.83955e-007 6.56484 11.5313 -1.63351 -3.75396e-006 5.32805e-006 -3 8.02928 -4.95143 0.697658 -63.7266 -4.07249 2.88637 -109.293 19.985 3.68964 -7.55382e-015 -3.18055e-015 -1.59028e-015 -12.0086 9.12275 1.59858 2.52956e-005 -3.80078e-006 3 -8.0289 -4.95139 -0.697676 177.81 -2.54802 3.57929 180 7.0153e-015 178.85 177.009 7.09765 179.784 -3.63843e-006 -2.58404e-006 0.102965 -19.38 68.7966 20.2372 8.13649 25.2327 -3.48774 -176.651 -5.56886 -1.41937 4.54188e-006 -4.6773e-006 -1.22201 -2.79652 -5.40525 -0.00675211 3.08558e-007 2.84348e-007 -0.0581972 18.3633 67.5227 -19.1452 -8.13649 25.2327 3.48774 
53.8357 97.0841 1.0187 0.219721 -5.94383 7.53325 0.00921451 -0.255264 -0.27734 0.0105166 3.49227 -0.55593 0.0175158 5.13731 -0.556598 -6.34063 13.3728 0.145753 12.3069 15.325 -2.01203 68.8895 -3.49232 -2.9581 107.131 21.0182 6.00771 4.47056e-005 -1.16305e-008 6.83955e-007 6.51793 11.5331 -1.62986 -3.75396e-006 5.32805e-006 -3 8.02928 -4.95143 0.697658 -63.7215 -4.08212 2.89142 -109.289 19.9612 3.67814 6.36111e-015 3.18055e-015 1.59028e-015 -12.0086 9.12122 1.59834 2.52956e-005 -3.80078e-006 3 -8.0289 -4.95139 -0.697676 177.809 -2.55985 3.58546 180 7.0153e-015 178.85 177.004 7.10551 179.785 -3.63843e-006 -2.58404e-006 0.102965 -19.379 68.7955 20.2361 8.13649 25.2327 -3.48774 -176.647 -5.59428 -1.42704 4.54188e-006 -4.6773e-006 -1.22201 -2.80108 -5.4022 -0.00708016 3.08558e-007 2.84348e-007 -0.058189 18.3635 67.5229 -19.1454 -8.13649 25.2327 3.48774 
